<mxfile host="app.diagrams.net" modified="2022-01-26T13:44:50.329Z" agent="5.0 (Windows NT 10.0; Win64; x64) AppleWebKit/537.36 (KHTML, like Gecko) Chrome/97.0.4692.99 Safari/537.36" etag="KZAm3lwsRC4PPYQZW0yn" version="16.1.2" type="github">
  <diagram id="Pl8HPwrcphuS88XE3JbI" name="Page-1">
    <mxGraphModel dx="1600" dy="834" grid="1" gridSize="10" guides="1" tooltips="1" connect="1" arrows="1" fold="1" page="1" pageScale="1" pageWidth="850" pageHeight="1100" math="0" shadow="0">
      <root>
        <mxCell id="0" />
        <mxCell id="1" parent="0" />
        <mxCell id="BSRtJzOhknkT1A2D1QrT-1" value="" style="rounded=1;whiteSpace=wrap;html=1;" vertex="1" parent="1">
          <mxGeometry x="30" y="120" width="540" height="730" as="geometry" />
        </mxCell>
        <mxCell id="BSRtJzOhknkT1A2D1QrT-2" value="IPAM" style="text;html=1;strokeColor=none;fillColor=none;align=center;verticalAlign=middle;whiteSpace=wrap;rounded=0;" vertex="1" parent="1">
          <mxGeometry x="270" y="90" width="60" height="30" as="geometry" />
        </mxCell>
        <mxCell id="BSRtJzOhknkT1A2D1QrT-3" value="&lt;div style=&quot;color: rgb(212 , 212 , 212) ; background-color: rgb(30 , 30 , 30) ; font-family: &amp;#34;consolas&amp;#34; , &amp;#34;courier new&amp;#34; , monospace ; font-size: 14px ; line-height: 19px&quot;&gt;&lt;div&gt;&lt;span style=&quot;color: #9cdcfe&quot;&gt;delegated_admin_account_id&lt;/span&gt;&lt;span style=&quot;color: #9cdcfe&quot;&gt; &lt;/span&gt;=&lt;span style=&quot;color: #9cdcfe&quot;&gt; &lt;/span&gt;&lt;span style=&quot;color: #ce9178&quot;&gt;&quot;599431277981&quot;&lt;/span&gt; &amp;nbsp; &amp;nbsp;&lt;span style=&quot;color: #6a9955&quot;&gt;# optional&lt;/span&gt;&lt;/div&gt;&lt;/div&gt;" style="text;html=1;strokeColor=none;fillColor=none;align=center;verticalAlign=middle;whiteSpace=wrap;rounded=0;" vertex="1" parent="1">
          <mxGeometry x="190" y="130" width="560" height="30" as="geometry" />
        </mxCell>
        <mxCell id="BSRtJzOhknkT1A2D1QrT-4" value="" style="rounded=1;whiteSpace=wrap;html=1;" vertex="1" parent="1">
          <mxGeometry x="70" y="190" width="450" height="620" as="geometry" />
        </mxCell>
        <mxCell id="BSRtJzOhknkT1A2D1QrT-5" value="Default Private Scope" style="text;html=1;strokeColor=none;fillColor=none;align=center;verticalAlign=middle;whiteSpace=wrap;rounded=0;" vertex="1" parent="1">
          <mxGeometry x="100" y="190" width="150" height="30" as="geometry" />
        </mxCell>
        <mxCell id="BSRtJzOhknkT1A2D1QrT-12" style="rounded=0;orthogonalLoop=1;jettySize=auto;html=1;" edge="1" parent="1" source="BSRtJzOhknkT1A2D1QrT-7" target="BSRtJzOhknkT1A2D1QrT-11">
          <mxGeometry relative="1" as="geometry" />
        </mxCell>
        <mxCell id="BSRtJzOhknkT1A2D1QrT-13" style="edgeStyle=none;rounded=0;orthogonalLoop=1;jettySize=auto;html=1;" edge="1" parent="1" source="BSRtJzOhknkT1A2D1QrT-7" target="BSRtJzOhknkT1A2D1QrT-10">
          <mxGeometry relative="1" as="geometry" />
        </mxCell>
        <mxCell id="BSRtJzOhknkT1A2D1QrT-7" value="top-level pool" style="ellipse;whiteSpace=wrap;html=1;aspect=fixed;" vertex="1" parent="1">
          <mxGeometry x="250" y="220" width="80" height="80" as="geometry" />
        </mxCell>
        <mxCell id="BSRtJzOhknkT1A2D1QrT-6" value="&lt;span style=&quot;font-family: consolas, &amp;quot;courier new&amp;quot;, monospace; font-size: 14px; font-style: normal; font-weight: 400; letter-spacing: normal; text-align: center; text-indent: 0px; text-transform: none; word-spacing: 0px; background-color: rgb(30, 30, 30); color: rgb(156, 220, 254);&quot;&gt;top_tier_cidr &amp;nbsp; &amp;nbsp; &amp;nbsp; &amp;nbsp; &amp;nbsp; &amp;nbsp; &amp;nbsp;&lt;/span&gt;&lt;span style=&quot;color: rgb(212, 212, 212); font-family: consolas, &amp;quot;courier new&amp;quot;, monospace; font-size: 14px; font-style: normal; font-weight: 400; letter-spacing: normal; text-align: center; text-indent: 0px; text-transform: none; word-spacing: 0px; background-color: rgb(30, 30, 30); display: inline; float: none;&quot;&gt;=&lt;/span&gt;&lt;span style=&quot;font-family: consolas, &amp;quot;courier new&amp;quot;, monospace; font-size: 14px; font-style: normal; font-weight: 400; letter-spacing: normal; text-align: center; text-indent: 0px; text-transform: none; word-spacing: 0px; background-color: rgb(30, 30, 30); color: rgb(156, 220, 254);&quot;&gt;&lt;span&gt;&amp;nbsp;&lt;/span&gt;&lt;/span&gt;&lt;span style=&quot;font-family: consolas, &amp;quot;courier new&amp;quot;, monospace; font-size: 14px; font-style: normal; font-weight: 400; letter-spacing: normal; text-align: center; text-indent: 0px; text-transform: none; word-spacing: 0px; background-color: rgb(30, 30, 30); color: rgb(206, 145, 120);&quot;&gt;&quot;10.0.0.0/8&quot;&lt;/span&gt;&lt;span style=&quot;color: rgb(212, 212, 212); font-family: consolas, &amp;quot;courier new&amp;quot;, monospace; font-size: 14px; font-style: normal; font-weight: 400; letter-spacing: normal; text-align: center; text-indent: 0px; text-transform: none; word-spacing: 0px; background-color: rgb(30, 30, 30); display: inline; float: none;&quot;&gt;&lt;span&gt;&amp;nbsp;&lt;/span&gt;&amp;nbsp; &amp;nbsp; &amp;nbsp;&lt;/span&gt;&lt;span style=&quot;font-family: consolas, &amp;quot;courier new&amp;quot;, monospace; font-size: 14px; font-style: normal; font-weight: 400; letter-spacing: normal; text-align: center; text-indent: 0px; text-transform: none; word-spacing: 0px; background-color: rgb(30, 30, 30); color: rgb(106, 153, 85);&quot;&gt;# optional&lt;/span&gt;" style="text;whiteSpace=wrap;html=1;" vertex="1" parent="1">
          <mxGeometry x="250" y="220" width="460" height="30" as="geometry" />
        </mxCell>
        <mxCell id="BSRtJzOhknkT1A2D1QrT-21" style="edgeStyle=none;rounded=0;orthogonalLoop=1;jettySize=auto;html=1;" edge="1" parent="1" source="BSRtJzOhknkT1A2D1QrT-10" target="BSRtJzOhknkT1A2D1QrT-20">
          <mxGeometry relative="1" as="geometry" />
        </mxCell>
        <mxCell id="BSRtJzOhknkT1A2D1QrT-10" value="regional pools&lt;br&gt;&lt;b&gt;[&quot;us-east-1&quot;]&lt;/b&gt;" style="ellipse;whiteSpace=wrap;html=1;aspect=fixed;" vertex="1" parent="1">
          <mxGeometry x="350" y="330" width="100" height="100" as="geometry" />
        </mxCell>
        <mxCell id="BSRtJzOhknkT1A2D1QrT-17" style="edgeStyle=none;rounded=0;orthogonalLoop=1;jettySize=auto;html=1;" edge="1" parent="1" source="BSRtJzOhknkT1A2D1QrT-11" target="BSRtJzOhknkT1A2D1QrT-15">
          <mxGeometry relative="1" as="geometry" />
        </mxCell>
        <mxCell id="BSRtJzOhknkT1A2D1QrT-19" style="edgeStyle=none;rounded=0;orthogonalLoop=1;jettySize=auto;html=1;" edge="1" parent="1" source="BSRtJzOhknkT1A2D1QrT-11" target="BSRtJzOhknkT1A2D1QrT-18">
          <mxGeometry relative="1" as="geometry" />
        </mxCell>
        <mxCell id="BSRtJzOhknkT1A2D1QrT-11" value="regional pools&lt;br&gt;&lt;b&gt;[&quot;us-west-2&quot;]&lt;/b&gt;" style="ellipse;whiteSpace=wrap;html=1;aspect=fixed;" vertex="1" parent="1">
          <mxGeometry x="140" y="330" width="100" height="100" as="geometry" />
        </mxCell>
        <mxCell id="BSRtJzOhknkT1A2D1QrT-14" value="&lt;div style=&quot;color: rgb(212, 212, 212); background-color: rgb(30, 30, 30); font-family: consolas, &amp;quot;courier new&amp;quot;, monospace; font-weight: normal; font-size: 14px; line-height: 19px;&quot;&gt;&lt;div&gt;&lt;span style=&quot;color: #d4d4d4&quot;&gt;&amp;nbsp; &lt;/span&gt;&lt;span style=&quot;color: #9cdcfe&quot;&gt;regional_config &lt;/span&gt;&lt;span style=&quot;color: #d4d4d4&quot;&gt;=&lt;/span&gt;&lt;span style=&quot;color: #9cdcfe&quot;&gt; &lt;/span&gt;&lt;span style=&quot;color: #d4d4d4&quot;&gt;{ &lt;/span&gt;&lt;span style=&quot;color: #6a9955&quot;&gt;# variable names are arbitrary for now&lt;/span&gt;&lt;/div&gt;&lt;div&gt;&lt;span style=&quot;color: #d4d4d4&quot;&gt;&amp;nbsp; &amp;nbsp; &lt;/span&gt;&lt;span style=&quot;color: #ce9178&quot;&gt;us-west-2&lt;/span&gt;&lt;span style=&quot;color: #d4d4d4&quot;&gt; = &lt;/span&gt;&lt;span style=&quot;color: #ce9178&quot;&gt;&quot;10.0.0.0/16&quot;&lt;/span&gt;&lt;/div&gt;&lt;div&gt;&lt;span style=&quot;color: #d4d4d4&quot;&gt;&amp;nbsp; &amp;nbsp; &lt;/span&gt;&lt;span style=&quot;color: #ce9178&quot;&gt;us-east-1&lt;/span&gt;&lt;span style=&quot;color: #d4d4d4&quot;&gt; = &lt;/span&gt;&lt;span style=&quot;color: #ce9178&quot;&gt;&quot;10.1.0.0/16&quot;&lt;/span&gt;&lt;/div&gt;&lt;div&gt;&lt;span style=&quot;color: #d4d4d4&quot;&gt;&amp;nbsp; }&lt;/span&gt;&lt;/div&gt;&lt;/div&gt;" style="text;whiteSpace=wrap;html=1;" vertex="1" parent="1">
          <mxGeometry x="450" y="330" width="490" height="90" as="geometry" />
        </mxCell>
        <mxCell id="BSRtJzOhknkT1A2D1QrT-15" value="env pools&lt;br&gt;&lt;b&gt;[&quot;prod&quot;]&lt;/b&gt;" style="ellipse;whiteSpace=wrap;html=1;aspect=fixed;" vertex="1" parent="1">
          <mxGeometry x="80" y="540" width="100" height="100" as="geometry" />
        </mxCell>
        <mxCell id="BSRtJzOhknkT1A2D1QrT-16" value="&lt;div style=&quot;color: rgb(212, 212, 212); background-color: rgb(30, 30, 30); font-family: consolas, &amp;quot;courier new&amp;quot;, monospace; font-weight: normal; font-size: 14px; line-height: 19px;&quot;&gt;&lt;div&gt;&lt;span style=&quot;color: #d4d4d4&quot;&gt;&amp;nbsp; &amp;nbsp; &lt;/span&gt;&lt;span style=&quot;color: #ce9178&quot;&gt;prod&lt;/span&gt;&lt;span style=&quot;color: #d4d4d4&quot;&gt; = {&lt;/span&gt;&lt;/div&gt;&lt;div&gt;&lt;span style=&quot;color: #d4d4d4&quot;&gt;&amp;nbsp; &amp;nbsp; &amp;nbsp; &lt;/span&gt;&lt;span style=&quot;color: #ce9178&quot;&gt;region&lt;/span&gt;&lt;span style=&quot;color: #d4d4d4&quot;&gt; &amp;nbsp; &amp;nbsp; &amp;nbsp; &amp;nbsp; &amp;nbsp; &amp;nbsp; &amp;nbsp; &amp;nbsp; &amp;nbsp; &amp;nbsp; = [&lt;/span&gt;&lt;span style=&quot;color: #ce9178&quot;&gt;&quot;us-west-2&quot;&lt;/span&gt;&lt;span style=&quot;color: #d4d4d4&quot;&gt;] &lt;/span&gt;&lt;span style=&quot;color: #6a9955&quot;&gt;# in a list because a pool can have multiple locales&lt;/span&gt;&lt;/div&gt;&lt;div&gt;&lt;span style=&quot;color: #d4d4d4&quot;&gt;&amp;nbsp; &amp;nbsp; &amp;nbsp; &lt;/span&gt;&lt;span style=&quot;color: #ce9178&quot;&gt;cidr&lt;/span&gt;&lt;span style=&quot;color: #d4d4d4&quot;&gt; &amp;nbsp; &amp;nbsp; &amp;nbsp; &amp;nbsp; &amp;nbsp; &amp;nbsp; &amp;nbsp; &amp;nbsp; &amp;nbsp; &amp;nbsp; &amp;nbsp; = &lt;/span&gt;&lt;span style=&quot;color: #ce9178&quot;&gt;&quot;10.0.0.0/28&quot;&lt;/span&gt;&lt;/div&gt;&lt;div&gt;&lt;span style=&quot;color: #d4d4d4&quot;&gt;&amp;nbsp; &amp;nbsp; &amp;nbsp; &lt;/span&gt;&lt;span style=&quot;color: #ce9178&quot;&gt;default_allocation_netmask&lt;/span&gt;&lt;span style=&quot;color: #d4d4d4&quot;&gt; = &lt;/span&gt;&lt;span style=&quot;color: #b5cea8&quot;&gt;28&lt;/span&gt;&lt;span style=&quot;color: #d4d4d4&quot;&gt; &amp;nbsp; &amp;nbsp; &amp;nbsp; &amp;nbsp; &amp;nbsp; &amp;nbsp; &amp;nbsp; &amp;nbsp; &amp;nbsp; &amp;nbsp; &amp;nbsp; &amp;nbsp; &amp;nbsp; &amp;nbsp; &amp;nbsp; &lt;/span&gt;&lt;span style=&quot;color: #6a9955&quot;&gt;# possibly optional&lt;/span&gt;&lt;/div&gt;&lt;div&gt;&lt;span style=&quot;color: #d4d4d4&quot;&gt;&amp;nbsp; &amp;nbsp; &amp;nbsp; &lt;/span&gt;&lt;span style=&quot;color: #ce9178&quot;&gt;max_allocation_netmask&lt;/span&gt;&lt;span style=&quot;color: #d4d4d4&quot;&gt; &amp;nbsp; &amp;nbsp; = &lt;/span&gt;&lt;span style=&quot;color: #b5cea8&quot;&gt;28&lt;/span&gt;&lt;span style=&quot;color: #d4d4d4&quot;&gt; &amp;nbsp; &amp;nbsp; &amp;nbsp; &amp;nbsp; &amp;nbsp; &amp;nbsp; &amp;nbsp; &amp;nbsp; &amp;nbsp; &amp;nbsp; &amp;nbsp; &amp;nbsp; &amp;nbsp; &amp;nbsp; &amp;nbsp; &lt;/span&gt;&lt;span style=&quot;color: #6a9955&quot;&gt;# possibly optional&lt;/span&gt;&lt;/div&gt;&lt;div&gt;&lt;span style=&quot;color: #d4d4d4&quot;&gt;&amp;nbsp; &amp;nbsp; &amp;nbsp; &lt;/span&gt;&lt;span style=&quot;color: #ce9178&quot;&gt;shared_to_accounts&lt;/span&gt;&lt;span style=&quot;color: #d4d4d4&quot;&gt; &amp;nbsp; &amp;nbsp; &amp;nbsp; &amp;nbsp; = [&lt;/span&gt;&lt;span style=&quot;color: #ce9178&quot;&gt;&quot;123456789012&quot;&lt;/span&gt;&lt;span style=&quot;color: #d4d4d4&quot;&gt;, &lt;/span&gt;&lt;span style=&quot;color: #ce9178&quot;&gt;&quot;234567890123&quot;&lt;/span&gt;&lt;span style=&quot;color: #d4d4d4&quot;&gt;] &lt;/span&gt;&lt;span style=&quot;color: #6a9955&quot;&gt;# optional&lt;/span&gt;&lt;/div&gt;&lt;div&gt;&lt;span style=&quot;color: #d4d4d4&quot;&gt;&amp;nbsp; &amp;nbsp; }&lt;/span&gt;&lt;/div&gt;&lt;div&gt;&lt;span style=&quot;color: #d4d4d4&quot;&gt;&amp;nbsp; &amp;nbsp; &lt;/span&gt;&lt;span style=&quot;color: #9cdcfe&quot;&gt;stage &lt;/span&gt;&lt;span style=&quot;color: #d4d4d4&quot;&gt;=&lt;/span&gt;&lt;span style=&quot;color: #9cdcfe&quot;&gt; &lt;/span&gt;&lt;span style=&quot;color: #d4d4d4&quot;&gt;{&lt;/span&gt;&lt;/div&gt;&lt;div&gt;&lt;span style=&quot;color: #d4d4d4&quot;&gt;&amp;nbsp; &amp;nbsp; &amp;nbsp; &lt;/span&gt;&lt;span style=&quot;color: #ce9178&quot;&gt;region&lt;/span&gt;&lt;span style=&quot;color: #d4d4d4&quot;&gt; &amp;nbsp; &amp;nbsp; &amp;nbsp; &amp;nbsp; &amp;nbsp; &amp;nbsp; &amp;nbsp; &amp;nbsp; &amp;nbsp; &amp;nbsp; = [&lt;/span&gt;&lt;span style=&quot;color: #ce9178&quot;&gt;&quot;us-west-2&quot;&lt;/span&gt;&lt;span style=&quot;color: #d4d4d4&quot;&gt;] &lt;/span&gt;&lt;span style=&quot;color: #6a9955&quot;&gt;# in a list because a pool can have multiple locales&lt;/span&gt;&lt;/div&gt;&lt;div&gt;&lt;span style=&quot;color: #d4d4d4&quot;&gt;&amp;nbsp; &amp;nbsp; &amp;nbsp; &lt;/span&gt;&lt;span style=&quot;color: #ce9178&quot;&gt;cidr&lt;/span&gt;&lt;span style=&quot;color: #d4d4d4&quot;&gt; &amp;nbsp; &amp;nbsp; &amp;nbsp; &amp;nbsp; &amp;nbsp; &amp;nbsp; &amp;nbsp; &amp;nbsp; &amp;nbsp; &amp;nbsp; &amp;nbsp; = &lt;/span&gt;&lt;span style=&quot;color: #ce9178&quot;&gt;&quot;10.0.1.0/28&quot;&lt;/span&gt;&lt;/div&gt;&lt;div&gt;&lt;span style=&quot;color: #d4d4d4&quot;&gt;&amp;nbsp; &amp;nbsp; &amp;nbsp; &lt;/span&gt;&lt;span style=&quot;color: #ce9178&quot;&gt;default_allocation_netmask&lt;/span&gt;&lt;span style=&quot;color: #d4d4d4&quot;&gt; = &lt;/span&gt;&lt;span style=&quot;color: #b5cea8&quot;&gt;28&lt;/span&gt;&lt;span style=&quot;color: #d4d4d4&quot;&gt; &amp;nbsp; &amp;nbsp; &amp;nbsp; &amp;nbsp; &amp;nbsp; &amp;nbsp; &amp;nbsp; &amp;nbsp; &amp;nbsp; &amp;nbsp; &amp;nbsp; &amp;nbsp; &amp;nbsp; &amp;nbsp; &amp;nbsp; &lt;/span&gt;&lt;span style=&quot;color: #6a9955&quot;&gt;# possibly optional&lt;/span&gt;&lt;/div&gt;&lt;div&gt;&lt;span style=&quot;color: #d4d4d4&quot;&gt;&amp;nbsp; &amp;nbsp; &amp;nbsp; &lt;/span&gt;&lt;span style=&quot;color: #ce9178&quot;&gt;max_allocation_netmask&lt;/span&gt;&lt;span style=&quot;color: #d4d4d4&quot;&gt; &amp;nbsp; &amp;nbsp; = &lt;/span&gt;&lt;span style=&quot;color: #b5cea8&quot;&gt;28&lt;/span&gt;&lt;span style=&quot;color: #d4d4d4&quot;&gt; &amp;nbsp; &amp;nbsp; &amp;nbsp; &amp;nbsp; &amp;nbsp; &amp;nbsp; &amp;nbsp; &amp;nbsp; &amp;nbsp; &amp;nbsp; &amp;nbsp; &amp;nbsp; &amp;nbsp; &amp;nbsp; &amp;nbsp; &lt;/span&gt;&lt;span style=&quot;color: #6a9955&quot;&gt;# possibly optional&lt;/span&gt;&lt;/div&gt;&lt;div&gt;&lt;span style=&quot;color: #d4d4d4&quot;&gt;&amp;nbsp; &amp;nbsp; &amp;nbsp; &lt;/span&gt;&lt;span style=&quot;color: #ce9178&quot;&gt;shared_to_accounts&lt;/span&gt;&lt;span style=&quot;color: #d4d4d4&quot;&gt; &amp;nbsp; &amp;nbsp; &amp;nbsp; &amp;nbsp; = [&lt;/span&gt;&lt;span style=&quot;color: #ce9178&quot;&gt;&quot;123456789012&quot;&lt;/span&gt;&lt;span style=&quot;color: #d4d4d4&quot;&gt;, &lt;/span&gt;&lt;span style=&quot;color: #ce9178&quot;&gt;&quot;234567890123&quot;&lt;/span&gt;&lt;span style=&quot;color: #d4d4d4&quot;&gt;] &lt;/span&gt;&lt;span style=&quot;color: #6a9955&quot;&gt;# optional&lt;/span&gt;&lt;/div&gt;&lt;div&gt;&lt;span style=&quot;color: #d4d4d4&quot;&gt;&amp;nbsp; &amp;nbsp; }&lt;/span&gt;&lt;/div&gt;&lt;div&gt;&lt;span style=&quot;color: #d4d4d4&quot;&gt;&amp;nbsp; &amp;nbsp; &lt;/span&gt;&lt;span style=&quot;color: #9cdcfe&quot;&gt;dev &lt;/span&gt;&lt;span style=&quot;color: #d4d4d4&quot;&gt;=&lt;/span&gt;&lt;span style=&quot;color: #9cdcfe&quot;&gt; &lt;/span&gt;&lt;span style=&quot;color: #d4d4d4&quot;&gt;{&lt;/span&gt;&lt;/div&gt;&lt;div&gt;&lt;span style=&quot;color: #d4d4d4&quot;&gt;&amp;nbsp; &amp;nbsp; &amp;nbsp; &lt;/span&gt;&lt;span style=&quot;color: #ce9178&quot;&gt;region&lt;/span&gt;&lt;span style=&quot;color: #d4d4d4&quot;&gt; &amp;nbsp; &amp;nbsp; &amp;nbsp; &amp;nbsp; &amp;nbsp; &amp;nbsp; &amp;nbsp; &amp;nbsp; &amp;nbsp; &amp;nbsp; = [&lt;/span&gt;&lt;span style=&quot;color: #ce9178&quot;&gt;&quot;us-east-1&quot;&lt;/span&gt;&lt;span style=&quot;color: #d4d4d4&quot;&gt;]&lt;/span&gt;&lt;/div&gt;&lt;div&gt;&lt;span style=&quot;color: #d4d4d4&quot;&gt;&amp;nbsp; &amp;nbsp; &amp;nbsp; &lt;/span&gt;&lt;span style=&quot;color: #ce9178&quot;&gt;cidr&lt;/span&gt;&lt;span style=&quot;color: #d4d4d4&quot;&gt; &amp;nbsp; &amp;nbsp; &amp;nbsp; &amp;nbsp; &amp;nbsp; &amp;nbsp; &amp;nbsp; &amp;nbsp; &amp;nbsp; &amp;nbsp; &amp;nbsp; = &lt;/span&gt;&lt;span style=&quot;color: #ce9178&quot;&gt;&quot;10.1.0.0/28&quot;&lt;/span&gt;&lt;/div&gt;&lt;div&gt;&lt;span style=&quot;color: #d4d4d4&quot;&gt;&amp;nbsp; &amp;nbsp; }&lt;/span&gt;&lt;/div&gt;&lt;/div&gt;" style="text;whiteSpace=wrap;html=1;" vertex="1" parent="1">
          <mxGeometry x="500" y="440" width="960" height="510" as="geometry" />
        </mxCell>
        <mxCell id="BSRtJzOhknkT1A2D1QrT-23" style="edgeStyle=none;rounded=0;orthogonalLoop=1;jettySize=auto;html=1;" edge="1" parent="1" source="BSRtJzOhknkT1A2D1QrT-18" target="BSRtJzOhknkT1A2D1QrT-22">
          <mxGeometry relative="1" as="geometry" />
        </mxCell>
        <mxCell id="BSRtJzOhknkT1A2D1QrT-18" value="env pools&lt;br&gt;&lt;b&gt;[&quot;stage&quot;]&lt;/b&gt;" style="ellipse;whiteSpace=wrap;html=1;aspect=fixed;" vertex="1" parent="1">
          <mxGeometry x="240" y="540" width="100" height="100" as="geometry" />
        </mxCell>
        <mxCell id="BSRtJzOhknkT1A2D1QrT-20" value="env pools&lt;br&gt;&lt;b&gt;[&quot;dev&quot;]&lt;/b&gt;" style="ellipse;whiteSpace=wrap;html=1;aspect=fixed;" vertex="1" parent="1">
          <mxGeometry x="375" y="540" width="100" height="100" as="geometry" />
        </mxCell>
        <mxCell id="BSRtJzOhknkT1A2D1QrT-22" value="env pools&lt;br&gt;&lt;b&gt;[&quot;marketing&quot;]&lt;/b&gt;" style="ellipse;whiteSpace=wrap;html=1;aspect=fixed;" vertex="1" parent="1">
          <mxGeometry x="240" y="690" width="100" height="100" as="geometry" />
        </mxCell>
        <mxCell id="BSRtJzOhknkT1A2D1QrT-24" value="&lt;div style=&quot;color: rgb(212, 212, 212); background-color: rgb(30, 30, 30); font-family: consolas, &amp;quot;courier new&amp;quot;, monospace; font-weight: normal; font-size: 14px; line-height: 19px;&quot;&gt;&lt;div&gt;&lt;span style=&quot;color: #9cdcfe&quot;&gt;marketing &lt;/span&gt;&lt;span style=&quot;color: #d4d4d4&quot;&gt;=&lt;/span&gt;&lt;span style=&quot;color: #9cdcfe&quot;&gt; &lt;/span&gt;&lt;span style=&quot;color: #d4d4d4&quot;&gt;{&lt;/span&gt;&lt;/div&gt;&lt;div&gt;&lt;span style=&quot;color: #d4d4d4&quot;&gt;&amp;nbsp; &amp;nbsp; &amp;nbsp; &lt;/span&gt;&lt;span style=&quot;color: #ce9178&quot;&gt;region&lt;/span&gt;&lt;span style=&quot;color: #d4d4d4&quot;&gt; &amp;nbsp; &amp;nbsp; &amp;nbsp; &amp;nbsp; &amp;nbsp; &amp;nbsp; &amp;nbsp; &amp;nbsp; &amp;nbsp; &amp;nbsp; = [&lt;/span&gt;&lt;span style=&quot;color: #ce9178&quot;&gt;&quot;stage&quot;&lt;/span&gt;&lt;span style=&quot;color: #d4d4d4&quot;&gt;] &lt;/span&gt;&lt;span style=&quot;color: #6a9955&quot;&gt;# matches one of the pool_configuration object keys, which creates it under that pool.&lt;/span&gt;&lt;/div&gt;&lt;div&gt;&lt;span style=&quot;color: #d4d4d4&quot;&gt;&amp;nbsp; &amp;nbsp; &amp;nbsp; &lt;/span&gt;&lt;span style=&quot;color: #ce9178&quot;&gt;cidr&lt;/span&gt;&lt;span style=&quot;color: #d4d4d4&quot;&gt; &amp;nbsp; &amp;nbsp; &amp;nbsp; &amp;nbsp; &amp;nbsp; &amp;nbsp; &amp;nbsp; &amp;nbsp; &amp;nbsp; &amp;nbsp; &amp;nbsp; = &lt;/span&gt;&lt;span style=&quot;color: #ce9178&quot;&gt;&quot;10.0.0.16/28&quot;&lt;/span&gt;&lt;/div&gt;&lt;div&gt;&lt;span style=&quot;color: #d4d4d4&quot;&gt;&amp;nbsp; &amp;nbsp; }&lt;/span&gt;&lt;/div&gt;&lt;/div&gt;" style="text;whiteSpace=wrap;html=1;" vertex="1" parent="1">
          <mxGeometry x="90" y="800" width="1080" height="110" as="geometry" />
        </mxCell>
      </root>
    </mxGraphModel>
  </diagram>
</mxfile>
